<svg version="1.1" xmlns="http://www.w3.org/2000/svg" style="display: block;" viewBox="0 0 2048 2048" width="624" height="624" preserveAspectRatio="none">
<defs>
	<linearGradient id="Gradient1" gradientUnits="userSpaceOnUse" x1="1644.1" y1="1790.3" x2="1630.5" y2="1610.69">
		<stop class="stop0" offset="0" stop-opacity="1" stop-color="rgb(1,91,196)"/>
		<stop class="stop1" offset="1" stop-opacity="1" stop-color="rgb(7,120,216)"/>
	</linearGradient>
	<linearGradient id="Gradient2" gradientUnits="userSpaceOnUse" x1="1402.56" y1="1792.61" x2="1394.41" y2="1613.61">
		<stop class="stop0" offset="0" stop-opacity="1" stop-color="rgb(1,89,194)"/>
		<stop class="stop1" offset="1" stop-opacity="1" stop-color="rgb(10,129,223)"/>
	</linearGradient>
	<linearGradient id="Gradient3" gradientUnits="userSpaceOnUse" x1="1146.68" y1="1809.95" x2="1179.87" y2="1619.2">
		<stop class="stop0" offset="0" stop-opacity="1" stop-color="rgb(0,80,187)"/>
		<stop class="stop1" offset="1" stop-opacity="1" stop-color="rgb(8,125,221)"/>
	</linearGradient>
	<linearGradient id="Gradient4" gradientUnits="userSpaceOnUse" x1="1875.26" y1="1794.04" x2="1862.94" y2="1614.8">
		<stop class="stop0" offset="0" stop-opacity="1" stop-color="rgb(2,90,194)"/>
		<stop class="stop1" offset="1" stop-opacity="1" stop-color="rgb(5,114,211)"/>
	</linearGradient>
	<linearGradient id="Gradient5" gradientUnits="userSpaceOnUse" x1="1354.95" y1="1257.01" x2="1268.38" y2="1087.85">
		<stop class="stop0" offset="0" stop-opacity="1" stop-color="rgb(35,186,246)"/>
		<stop class="stop1" offset="1" stop-opacity="1" stop-color="rgb(53,214,251)"/>
	</linearGradient>
	<linearGradient id="Gradient6" gradientUnits="userSpaceOnUse" x1="317.009" y1="955.409" x2="910.212" y2="862.991">
		<stop class="stop0" offset="0" stop-opacity="1" stop-color="rgb(0,58,187)"/>
		<stop class="stop1" offset="1" stop-opacity="1" stop-color="rgb(0,99,215)"/>
	</linearGradient>
	<linearGradient id="Gradient7" gradientUnits="userSpaceOnUse" x1="770.339" y1="943.59" x2="1473.56" y2="845.382">
		<stop class="stop0" offset="0" stop-opacity="1" stop-color="rgb(10,133,232)"/>
		<stop class="stop1" offset="1" stop-opacity="1" stop-color="rgb(27,175,248)"/>
	</linearGradient>
	<linearGradient id="Gradient8" gradientUnits="userSpaceOnUse" x1="623.875" y1="220.024" x2="856.486" y2="374.157">
		<stop class="stop0" offset="0" stop-opacity="1" stop-color="rgb(0,71,195)"/>
		<stop class="stop1" offset="1" stop-opacity="1" stop-color="rgb(0,104,217)"/>
	</linearGradient>
	<linearGradient id="Gradient9" gradientUnits="userSpaceOnUse" x1="125.006" y1="1039.33" x2="1612.77" y2="699.572">
		<stop class="stop0" offset="0" stop-opacity="1" stop-color="rgb(0,25,116)"/>
		<stop class="stop1" offset="1" stop-opacity="1" stop-color="rgb(1,57,154)"/>
	</linearGradient>
</defs>
<path transform="translate(0,0)" fill="url(#Gradient9)" d="M 230.192 606.365 C 229.871 588.752 226.773 495.96 234.372 487.264 C 236.692 484.613 239.096 482.036 241.58 479.538 C 252.285 468.832 268.509 455.759 280.38 445.6 L 343.79 390.997 L 416.142 328.735 C 438.502 309.149 487.407 264.349 513.271 246.704 C 517.598 243.752 561.296 243.971 570.18 243.802 C 627.331 242.977 684.488 242.747 741.643 243.113 C 799.053 243.055 861.76 244.67 918.695 243.319 C 959.4 242.528 1002.32 243.433 1043.3 243.258 C 1069.09 242.444 1095.48 243.166 1121.31 243.365 C 1136.18 244.681 1164.44 241.693 1178.45 246.116 C 1191.52 250.24 1220.15 278.273 1231.34 287.88 C 1259.36 311.615 1287.19 335.573 1314.82 359.754 L 1415.61 448.041 C 1422.61 454.248 1457.35 483.061 1459.06 489.174 C 1468.21 521.97 1461.08 569.59 1463.79 602.993 C 1464.61 613.007 1503.59 639.675 1515.01 647.65 C 1514.17 642.324 1513.93 636.764 1513.88 631.372 C 1513.41 579.842 1514.06 528.302 1513.49 476.772 C 1513.36 464.953 1513.37 451.261 1522.39 442.337 C 1526.73 438.1 1532.61 435.821 1538.67 436.029 C 1544.77 436.236 1550.52 438.927 1554.58 443.477 C 1565.7 455.742 1562.66 488.665 1562.56 505.567 C 1562.31 549.739 1562.31 593.911 1562.57 638.082 C 1562.63 653.196 1561.09 678.032 1563.19 691.548 C 1565.68 707.561 1583.36 710.31 1584.57 733.343 C 1586.45 768.923 1585.12 805.238 1585.16 840.893 C 1585.21 883.146 1586.38 925.752 1585.14 967.969 C 1584.97 973.797 1584.92 982.507 1582.2 987.717 C 1571.74 1007.73 1487.88 1061.62 1464.95 1083.4 L 1463.93 1084.38 C 1463.01 1103.81 1466.8 1190.1 1459.41 1200.4 C 1449.77 1213.83 1414.42 1236.3 1399.84 1247 C 1358.09 1277.67 1316.14 1308.06 1273.99 1338.16 L 1091.88 1468.77 C 1057.22 1493.66 1022.85 1519.4 987.605 1543.39 C 982.267 1547.03 974.193 1553.46 967.697 1554.32 C 947.491 1556.99 730.485 1557.35 724.341 1553.93 C 694.663 1537.39 667.104 1515.19 639.306 1495.58 L 464.761 1370.9 C 413.567 1334.86 362.584 1298.53 311.815 1261.89 C 288.26 1244.92 260.579 1226.24 238.831 1207.07 C 227.795 1197.34 229.749 1162.72 229.725 1147.81 L 229.688 1084.57 C 208.966 1065.96 176.128 1043.37 153.59 1026.39 C 106.114 990.615 105.981 991.451 106.134 933.992 C 106.375 910.127 106.332 886.26 106.006 862.396 C 105.668 839.049 104.075 736.317 109.643 720.563 C 113.103 710.775 121.05 703.846 128.108 696.581 C 126.894 644.475 127.883 588.561 127.849 536.215 L 127.758 485.68 C 127.731 473.051 125.247 454.023 134.411 444.629 C 139.691 439.209 147.011 436.266 154.573 436.523 C 166.306 436.938 175.083 448.242 175.906 459.019 C 177.6 481.208 176.797 504.556 176.782 526.836 C 176.995 567.568 176.926 608.301 176.577 649.032 C 180.735 646.309 189.074 639.337 193.534 635.858 C 205.446 626.564 219.245 616.646 230.192 606.365 z"/>
<path transform="translate(0,0)" fill="url(#Gradient8)" d="M 741.643 243.113 C 799.053 243.055 861.76 244.67 918.695 243.319 C 914.532 246.042 854.879 245.874 847.047 245.838 L 847.019 343.238 C 847.019 349.748 847.104 371.079 846.718 378.528 C 846.678 379.282 844.474 380.568 843.668 381.002 C 844.085 384.33 845.398 391.219 844.068 393.844 C 839.414 394.329 826.788 393.653 824.874 394.397 C 828.79 394.458 842.106 394.089 844.707 395.832 C 836.911 396.845 808.313 396.273 799.206 396.271 C 767.694 396.115 736.181 396.229 704.671 396.612 C 693.282 382.461 680.784 363.05 670.548 347.836 L 631.444 290.617 C 625.451 281.79 619.076 271.322 612.711 263.016 C 608.908 257.257 606.68 253.27 603.452 247.143 C 607.392 240.136 723.662 248.912 741.643 243.113 z"/>
<path transform="translate(0,0)" fill="rgb(20,157,241)" d="M 918.695 243.319 C 959.4 242.528 1002.32 243.433 1043.3 243.258 L 1044.96 244.317 C 1053.25 244.49 1082.44 243.631 1087.5 244.836 C 1087.69 247.342 1086.03 250.008 1084.44 252.498 C 1057.46 294.776 1031.34 337.646 1004.19 379.805 C 1004.04 379.936 1003.88 380.067 1003.72 380.199 C 1000.66 385.21 996.743 391.995 993.422 396.662 C 953.273 394.959 910.701 397.108 870.294 395.956 C 861.884 396.473 853.118 396.25 844.707 395.832 C 842.106 394.089 828.79 394.458 824.874 394.397 C 826.788 393.653 839.414 394.329 844.068 393.844 C 845.398 391.219 844.085 384.33 843.668 381.002 C 844.474 380.568 846.678 379.282 846.718 378.528 C 847.104 371.079 847.019 349.748 847.019 343.238 L 847.047 245.838 C 854.879 245.874 914.532 246.042 918.695 243.319 z"/>
<path transform="translate(0,0)" fill="rgb(37,195,246)" d="M 846.944 380.087 L 970.945 380.367 C 976.487 380.371 1000.34 379.353 1003.72 380.199 C 1000.66 385.21 996.743 391.995 993.422 396.662 C 953.273 394.959 910.701 397.108 870.294 395.956 C 865.28 395.115 852.377 395.267 846.746 395.19 L 846.944 380.087 z"/>
<path transform="translate(0,0)" fill="rgb(0,38,132)" d="M 603.452 247.143 C 606.68 253.27 608.908 257.257 612.711 263.016 C 610.791 263.76 611.828 263.597 609.58 263.363 C 605.347 259.128 601.066 253.151 603.452 247.143 z"/>
<path transform="translate(0,0)" fill="url(#Gradient7)" d="M 522.761 280.779 C 540.238 279.974 559.621 280.104 577.168 280.261 C 586.653 293.41 595.347 307.379 604.882 320.509 C 626.431 350.187 647.519 380.097 667.932 410.572 C 673.659 419.121 680.176 428.701 686.933 436.384 C 695.076 436.996 706.882 436.526 715.283 436.496 L 768.553 436.404 L 932.802 435.887 C 957.946 435.901 986.931 435.319 1011.79 436.331 C 1016.47 431.381 1029.16 409.419 1033.89 402.216 L 1081.47 330.683 C 1090.74 316.509 1105.27 292.501 1115.56 280.491 C 1133.57 280.241 1153.3 279.664 1171.18 281.066 C 1175.54 284.657 1181.48 290.706 1185.71 294.78 C 1201.95 309.357 1222.38 327.738 1237.82 342.988 C 1230.12 360.37 1220.98 377.801 1212.52 394.893 L 1175.15 471.079 C 1170.72 480.059 1152.95 513.224 1151.72 520.307 C 1148.36 539.649 1149.67 578.222 1149.79 598.864 C 1150 634.49 1148.99 671.818 1150.18 707.069 C 1103.05 711.856 1066.33 726.504 1035.4 764.213 C 1008.84 796.589 998.562 837.315 1003.19 878.75 C 1007.99 919.52 1028.99 956.647 1061.45 981.778 C 1127.89 1034.27 1227.63 1023.55 1280.18 956.413 C 1306.2 922.775 1317.54 880.063 1311.65 837.948 C 1302.33 767.004 1250.38 720.955 1182.05 707.684 L 1182.04 589.29 C 1182.03 577.675 1181.28 537.377 1183.17 528.226 C 1184.67 520.971 1205.1 481.274 1209.53 472.835 C 1228.08 437.517 1246.42 396.927 1265.76 362.41 C 1301.07 394.25 1336.54 425.905 1372.18 457.376 C 1386.18 469.756 1418.29 496.549 1429.17 509.128 C 1429.95 545.059 1430.87 596.544 1429.16 631.99 C 1354.48 632.092 1364.11 629.591 1364.18 703.39 L 1364.28 787.126 C 1364.39 860.47 1363.64 934.979 1364.53 1008.21 C 1351.8 1019.68 1330.59 1035.21 1316.58 1046.1 L 1238.06 1107.35 C 1225.79 1116.81 1195.74 1138.7 1187.72 1148.89 C 1186.09 1169.21 1187.1 1203.2 1187.09 1224.87 L 1187.07 1353.01 C 1130.91 1394.1 1074.31 1434.6 1017.29 1474.49 C 999.743 1486.9 978.079 1504.67 959.427 1514.7 C 952.524 1518.41 927.102 1517.04 917.917 1516.86 C 917.482 1488.64 917.328 1460.42 917.456 1432.2 C 917.459 1422.38 919.591 1386.74 913.807 1380.67 C 910.742 1377.45 906.428 1375.74 901.993 1375.97 C 885.133 1376.85 886.842 1395.2 886.819 1407.29 C 886.8 1417.17 886.861 1427.07 886.895 1436.95 C 886.744 1463.69 886.899 1490.44 887.361 1517.18 L 861.251 1516.88 C 845.7 1517.88 822.206 1517.11 806.141 1517.07 C 805.89 1488.36 805.855 1459.66 806.038 1430.95 C 806.065 1416.9 806.332 1402.97 805.674 1388.82 C 805.238 1379.45 796.295 1374.19 787.53 1375.77 C 780.011 1377.12 777.074 1383.06 776.495 1390.31 C 775.371 1404.4 775.746 1418.85 775.738 1433.06 L 776.097 1517.03 C 767.996 1517 739.506 1517.58 733.783 1514.68 C 717.957 1506.65 695.96 1489.11 680.881 1478.4 C 644.413 1452.53 608.08 1426.47 571.886 1400.23 C 551.081 1385.27 528.342 1368.31 507.053 1354.32 L 507.253 1215.16 C 507.269 1194.65 507.604 1172.62 506.874 1152.06 C 506.778 1148.61 501.887 1143.43 499.18 1141.33 C 441.82 1096.72 384.185 1050.72 325.835 1007.53 C 324.901 996.638 325.688 972.072 325.636 959.778 L 325.288 762.301 C 325.262 728.712 325.392 694.722 324.95 661.129 C 324.902 657.47 323.44 645.244 321.571 642.84 C 309.562 627.385 283.19 633.658 265.748 630.804 L 264.254 630.551 C 262.902 592.314 263.667 546.322 263.951 507.701 C 272.084 498.047 293.158 480.875 303.854 471.474 C 326.686 451.346 349.735 431.465 372.996 411.836 C 391.697 395.958 409.581 381.399 427.11 364.201 C 448.075 404.465 468.638 444.937 488.795 485.611 C 491.992 492 508.52 523.082 509.086 527.435 C 510.945 541.731 510.162 570.302 510.128 585.494 L 510.099 707.806 C 499.349 709.906 488.806 712.279 478.516 716.093 C 440.92 729.908 410.438 758.228 393.899 794.707 C 373.894 839.27 376.236 899.816 402.414 941.502 C 418.953 967.839 444.395 989.806 472.851 1002.31 C 473.737 1001.88 474.622 1001.45 475.508 1001.03 C 486.3 1003.61 496.401 1007.63 507.387 1009.74 L 504.646 1012.5 C 552.8 1020.96 607.811 1010.56 644.005 975.811 C 743.551 880.229 682.312 710.955 540.471 707.647 C 539.862 666.622 540.677 624.924 540.328 583.965 C 540.227 572.107 541.701 531.369 539.165 522.192 C 535.775 509.924 517.864 476.203 511.498 463.222 L 452.976 343.128 C 465.833 330.979 479.872 318.757 493.019 306.833 C 501.643 299.011 513.754 287.535 522.761 280.779 z"/>
<path transform="translate(0,0)" fill="url(#Gradient6)" d="M 522.761 280.779 C 540.238 279.974 559.621 280.104 577.168 280.261 C 586.653 293.41 595.347 307.379 604.882 320.509 C 626.431 350.187 647.519 380.097 667.932 410.572 C 673.659 419.121 680.176 428.701 686.933 436.384 C 695.076 436.996 706.882 436.526 715.283 436.496 L 768.553 436.404 L 932.802 435.887 C 957.946 435.901 986.931 435.319 1011.79 436.331 C 1002.35 437.688 991.282 436.819 981.679 436.975 C 937.059 437.704 891.662 435.719 847.109 437.183 C 834.333 437.249 797.298 436.564 787.292 437.797 C 793.48 437.909 842.858 437.706 844.473 438.497 C 844.427 442.158 844.72 446.461 843.721 449.818 C 836.664 451.152 829.153 450.044 821.985 450.152 C 807.28 450.374 789.642 449.199 775.228 450.527 C 785.812 452.764 801.125 451.477 812.192 451.519 C 823.869 451.563 835.504 451.715 847.182 451.887 C 847.062 487.382 845.727 532.951 847.067 567.969 C 821.436 567.96 790.184 568.745 764.865 567.598 C 764.537 567.334 764.21 567.071 763.882 566.808 C 749.068 558.495 718.298 505.622 700.117 527.843 C 682.722 549.102 726.615 570.996 735.272 587.23 C 736.145 591.935 738.547 594.096 742.004 597.477 C 754.628 609.822 838.71 598.22 844.528 604.519 C 844.713 608.78 845.135 609.914 843.169 613.458 C 840.758 614.874 763.765 613.97 754.448 614.291 C 759.341 615.005 777.849 614.882 784.017 614.963 L 846.825 615.855 L 847.16 901.102 L 847.093 994.655 C 847.093 1005.71 847.094 1016.66 847.701 1027.71 C 847.93 1031.89 844 1033.96 840.896 1035.55 C 844.316 1038.05 844.994 1036.49 847.913 1037.87 C 859.321 1038.82 869.47 1045.48 874.869 1055.58 C 880.267 1065.67 880.177 1077.81 874.629 1087.82 C 875.931 1088.27 877.231 1088.26 877.529 1089.66 C 881.756 1109.66 863.269 1117.42 846.955 1117.58 C 848.019 1150.65 846.536 1184.31 847.028 1217.44 C 847.118 1223.49 847.104 1229.95 846.735 1235.98 L 916.235 1235.93 C 922.932 1235.95 944.14 1235.6 949.783 1236.35 C 944.49 1237.54 885.868 1237.28 875.83 1236.99 C 834.103 1235.81 787.71 1238.27 746.753 1236.65 C 730.678 1226.33 710.564 1199.26 695.739 1185.12 C 681.814 1171.84 668.313 1157.29 649.948 1177.52 C 638.331 1192.98 658.277 1209.57 666.298 1219.33 C 676.765 1232.06 704.877 1256.29 712.239 1269.02 C 712.925 1273.33 715.151 1275.99 718.702 1278.61 C 735.036 1290.66 820.021 1283.34 844.315 1283.9 C 843.177 1285.37 843.616 1284.84 841.773 1285.74 L 841.235 1286.99 L 841.036 1286.12 L 839.581 1287.15 C 843.539 1287.37 841.893 1286.69 844.831 1288.87 C 845.795 1291.6 845.036 1292.78 844.097 1295.56 C 836.023 1296.74 817.144 1296.16 808.332 1296.12 L 748.454 1295.91 C 744.994 1295.87 729.15 1295 726.944 1295.22 C 736.409 1298.79 829.873 1296.85 847.157 1297.66 C 847.029 1349.27 847.287 1400.89 847.931 1452.5 C 848.038 1472.88 848.74 1496.27 848.129 1516.28 C 851.653 1516.37 857.994 1516.34 861.251 1516.88 C 845.7 1517.88 822.206 1517.11 806.141 1517.07 C 805.89 1488.36 805.855 1459.66 806.038 1430.95 C 806.065 1416.9 806.332 1402.97 805.674 1388.82 C 805.238 1379.45 796.295 1374.19 787.53 1375.77 C 780.011 1377.12 777.074 1383.06 776.495 1390.31 C 775.371 1404.4 775.746 1418.85 775.738 1433.06 L 776.097 1517.03 C 767.996 1517 739.506 1517.58 733.783 1514.68 C 717.957 1506.65 695.96 1489.11 680.881 1478.4 C 644.413 1452.53 608.08 1426.47 571.886 1400.23 C 551.081 1385.27 528.342 1368.31 507.053 1354.32 L 507.253 1215.16 C 507.269 1194.65 507.604 1172.62 506.874 1152.06 C 506.778 1148.61 501.887 1143.43 499.18 1141.33 C 441.82 1096.72 384.185 1050.72 325.835 1007.53 C 324.901 996.638 325.688 972.072 325.636 959.778 L 325.288 762.301 C 325.262 728.712 325.392 694.722 324.95 661.129 C 324.902 657.47 323.44 645.244 321.571 642.84 C 309.562 627.385 283.19 633.658 265.748 630.804 L 264.254 630.551 C 262.902 592.314 263.667 546.322 263.951 507.701 C 272.084 498.047 293.158 480.875 303.854 471.474 C 326.686 451.346 349.735 431.465 372.996 411.836 C 391.697 395.958 409.581 381.399 427.11 364.201 C 448.075 404.465 468.638 444.937 488.795 485.611 C 491.992 492 508.52 523.082 509.086 527.435 C 510.945 541.731 510.162 570.302 510.128 585.494 L 510.099 707.806 C 499.349 709.906 488.806 712.279 478.516 716.093 C 440.92 729.908 410.438 758.228 393.899 794.707 C 373.894 839.27 376.236 899.816 402.414 941.502 C 418.953 967.839 444.395 989.806 472.851 1002.31 C 473.737 1001.88 474.622 1001.45 475.508 1001.03 C 486.3 1003.61 496.401 1007.63 507.387 1009.74 L 504.646 1012.5 C 552.8 1020.96 607.811 1010.56 644.005 975.811 C 743.551 880.229 682.312 710.955 540.471 707.647 C 539.862 666.622 540.677 624.924 540.328 583.965 C 540.227 572.107 541.701 531.369 539.165 522.192 C 535.775 509.924 517.864 476.203 511.498 463.222 L 452.976 343.128 C 465.833 330.979 479.872 318.757 493.019 306.833 C 501.643 299.011 513.754 287.535 522.761 280.779 z"/>
<path transform="translate(0,0)" fill="rgb(0,38,132)" d="M 847.913 1037.87 C 859.321 1038.82 869.47 1045.48 874.869 1055.58 C 880.267 1065.67 880.177 1077.81 874.629 1087.82 C 875.931 1088.27 877.231 1088.26 877.529 1089.66 C 881.756 1109.66 863.269 1117.42 846.955 1117.58 C 831.236 1114.64 814.719 1105.14 810.938 1087 C 810.349 1084.17 811.341 1083.89 813.116 1082.08 C 809.557 1071.33 811.629 1059.52 818.631 1050.62 C 825.633 1041.73 836.631 1036.94 847.913 1037.87 z"/>
<path transform="translate(0,0)" fill="rgb(20,157,241)" d="M 813.116 1082.08 C 817.326 1094.8 828.66 1103.81 841.995 1105.06 C 855.33 1106.3 868.138 1099.54 874.629 1087.82 C 875.931 1088.27 877.231 1088.26 877.529 1089.66 C 881.756 1109.66 863.269 1117.42 846.955 1117.58 C 831.236 1114.64 814.719 1105.14 810.938 1087 C 810.349 1084.17 811.341 1083.89 813.116 1082.08 z"/>
<path transform="translate(0,0)" fill="rgb(0,38,132)" d="M 472.851 1002.31 C 473.737 1001.88 474.622 1001.45 475.508 1001.03 C 486.3 1003.61 496.401 1007.63 507.387 1009.74 L 504.646 1012.5 C 492.361 1009.65 484.42 1007.21 472.851 1002.31 z"/>
<path transform="translate(0,0)" fill="rgb(0,38,132)" d="M 388.208 456.92 C 398.253 453.99 408.764 459.794 411.634 469.857 C 414.504 479.919 408.638 490.396 398.558 493.206 C 388.563 495.994 378.193 490.187 375.347 480.208 C 372.5 470.229 378.246 459.825 388.208 456.92 z"/>
<path transform="translate(0,0)" fill="rgb(0,38,132)" d="M 319.794 544.746 C 325.994 543.029 332.638 544.795 337.168 549.363 C 341.698 553.931 343.407 560.59 341.638 566.775 C 339.869 572.96 334.898 577.708 328.637 579.191 C 319.207 581.424 309.724 575.695 307.314 566.308 C 304.904 556.92 310.454 547.332 319.794 544.746 z"/>
<path transform="translate(0,0)" fill="rgb(0,38,132)" d="M 712.239 1269.02 C 704.877 1256.29 676.765 1232.06 666.298 1219.33 C 658.277 1209.57 638.331 1192.98 649.948 1177.52 C 668.313 1157.29 681.814 1171.84 695.739 1185.12 C 710.564 1199.26 730.678 1226.33 746.753 1236.65 C 787.71 1238.27 834.103 1235.81 875.83 1236.99 C 885.868 1237.28 944.49 1237.54 949.783 1236.35 C 972.156 1219.39 991.875 1185.32 1016.22 1171.05 C 1034.7 1160.22 1052.69 1179.41 1044.68 1201.03 C 1039.5 1209.3 977.499 1276.69 969.96 1281.8 C 933.183 1284.21 884.857 1282.03 846.779 1282.71 C 813.963 1280.65 777.116 1284.66 743.899 1282.97 C 724.553 1281.99 725.986 1282.98 712.239 1269.02 z"/>
<path transform="translate(0,0)" fill="rgb(0,38,132)" d="M 928.619 567.525 C 943.487 557.712 956.604 535.987 971.105 525.966 C 988.576 513.893 998.809 529.938 994.442 548.086 C 986.989 557.209 952.187 593.096 943.629 600.219 C 919.802 602.16 875.782 600.762 850.602 600.781 C 821.646 601.055 792.629 601.107 763.673 601.225 C 747.227 601.292 746.695 598.839 735.272 587.23 C 726.615 570.996 682.722 549.102 700.117 527.843 C 718.298 505.622 749.068 558.495 763.882 566.808 C 764.21 567.071 764.537 567.334 764.865 567.598 C 790.184 568.745 821.436 567.96 847.067 567.969 C 871.332 568.339 904.817 568.645 928.619 567.525 z"/>
<path transform="translate(0,0)" fill="rgb(37,195,246)" d="M 1115.56 280.491 C 1133.57 280.241 1153.3 279.664 1171.18 281.066 C 1175.54 284.657 1181.48 290.706 1185.71 294.78 L 1185.21 297.222 C 1182.5 298.814 1134.71 295.184 1123.52 297.418 C 1102.39 326.767 1083.57 358.53 1062.12 387.817 C 1047.91 407.227 1034.64 435.799 1016.77 451.851 C 961.31 452.987 902.821 451.981 847.141 451.872 L 847.109 437.183 C 891.662 435.719 937.059 437.704 981.679 436.975 C 991.282 436.819 1002.35 437.688 1011.79 436.331 C 1016.47 431.381 1029.16 409.419 1033.89 402.216 L 1081.47 330.683 C 1090.74 316.509 1105.27 292.501 1115.56 280.491 z"/>
<path transform="translate(0,0)" fill="rgb(37,195,246)" d="M 1044.68 1201.03 C 1050.1 1202.79 1049.9 1208.38 1050.96 1213.65 C 1043.97 1223.8 985.357 1290.46 976.911 1296.04 C 962.344 1298.05 940.422 1297.41 925.213 1297.37 L 846.933 1297.05 C 847.656 1290.58 847.792 1289.37 846.779 1282.71 C 884.857 1282.03 933.183 1284.21 969.96 1281.8 C 977.499 1276.69 1039.5 1209.3 1044.68 1201.03 z"/>
<path transform="translate(0,0)" fill="rgb(37,195,246)" d="M 994.442 548.086 L 997.245 545.311 C 1003.05 549.414 1002.46 558.553 998.296 562.858 C 985.27 576.327 962.649 606.555 947.587 615.896 C 914.185 616.632 880.308 615.581 846.854 615.775 C 846.843 611.291 846.193 605.148 848.438 601.665 L 850.602 600.781 C 875.782 600.762 919.802 602.16 943.629 600.219 C 952.187 593.096 986.989 557.209 994.442 548.086 z"/>
<path transform="translate(0,0)" fill="rgb(0,58,184)" d="M 1353.37 571.719 C 1350.63 563.439 1350.37 554.745 1357.47 548.41 C 1360.95 545.28 1365.57 543.742 1370.23 544.168 C 1385 545.419 1387.72 557.988 1385.9 570.192 C 1390.97 572.111 1389.65 578.845 1387.74 582.748 C 1380.77 597.019 1347.33 588.926 1353.37 571.719 z"/>
<path transform="translate(0,0)" fill="rgb(37,195,246)" d="M 1385.9 570.192 C 1390.97 572.111 1389.65 578.845 1387.74 582.748 C 1380.77 597.019 1347.33 588.926 1353.37 571.719 C 1364.43 582.898 1375.9 582.529 1385.9 570.192 z"/>
<path transform="translate(0,0)" fill="rgb(0,58,184)" d="M 1295.41 456.592 C 1305.44 456.677 1313.53 464.815 1313.55 474.843 C 1313.58 484.87 1305.53 493.051 1295.5 493.187 C 1288.92 493.277 1282.79 489.821 1279.47 484.139 C 1276.14 478.457 1276.12 471.424 1279.42 465.724 C 1282.72 460.024 1288.82 456.537 1295.41 456.592 z"/>
<path transform="translate(0,0)" fill="rgb(20,157,241)" d="M 1396.92 659.884 C 1407.67 659.189 1418.46 659.199 1429.2 659.915 C 1430.78 752.115 1429.53 846.777 1429.64 939.127 L 1429.46 1103.85 C 1429.39 1128.62 1430.03 1156.2 1429.37 1180.73 C 1419.48 1189.18 1404.21 1199.07 1393.21 1206.84 L 1339.93 1245.1 C 1306.41 1268.75 1270.65 1295.9 1237 1318.42 C 1231.43 1322.55 1226.98 1325.52 1221.09 1329.22 C 1219.26 1313.99 1220.07 1283.66 1220.08 1267.47 L 1220.14 1158.5 C 1229.4 1149.48 1259.21 1127.71 1270.93 1118.78 L 1355.06 1054.16 C 1365.57 1046.21 1389.65 1029.46 1396.72 1020.85 C 1397.95 992.392 1396.93 957.594 1396.88 928.714 L 1396.85 755.733 C 1396.83 725.231 1395.98 690.028 1396.92 659.884 z"/>
<path transform="translate(0,0)" fill="url(#Gradient5)" d="M 1396.72 1020.85 C 1402.55 1018.68 1405.15 1025.28 1409.27 1030.08 C 1376.74 1058.2 1338.82 1085.11 1304.59 1111.5 C 1286.86 1125.17 1254.02 1152.21 1234.94 1162.29 C 1233.99 1191.73 1234.88 1223.12 1234.78 1252.76 C 1234.73 1266.27 1234.05 1306.83 1237 1318.42 C 1231.43 1322.55 1226.98 1325.52 1221.09 1329.22 C 1219.26 1313.99 1220.07 1283.66 1220.08 1267.47 L 1220.14 1158.5 C 1229.4 1149.48 1259.21 1127.71 1270.93 1118.78 L 1355.06 1054.16 C 1365.57 1046.21 1389.65 1029.46 1396.72 1020.85 z"/>
<path transform="translate(0,0)" fill="rgb(0,58,184)" d="M 263.392 659.169 C 274.479 659.07 283.957 658.884 295.028 659.838 L 295.076 1022.44 C 334.696 1053.98 377.732 1083.2 417.587 1114.63 C 434.957 1128.32 459.397 1144.41 475.059 1159.29 L 475.317 1332.88 C 466.33 1327.2 451.018 1314.69 441.051 1307.56 L 362.966 1252.23 L 300.592 1208.11 C 288.26 1199.24 275.439 1190.54 264.292 1180.27 C 262.66 1136.74 264.056 1082.83 264.006 1038.5 L 263.812 798.81 C 263.962 752.262 263.822 705.715 263.392 659.169 z"/>
<path transform="translate(0,0)" fill="rgb(64,226,253)" d="M 1061.32 845.969 C 1067.89 817.204 1080.1 793.836 1105.84 777.76 C 1128.27 763.78 1155.37 759.391 1181.07 765.579 C 1206.23 771.426 1228.04 786.298 1241.59 808.426 C 1255.16 831.059 1259.17 858.16 1252.73 883.752 C 1246.61 908.758 1230.93 931.566 1208.64 944.776 C 1186.03 958.081 1159.06 961.838 1133.68 955.216 C 1106.98 948.216 1085.69 931.001 1072.05 907.154 C 1070.72 904.878 1069.5 902.544 1068.38 900.159 C 1066.75 898.875 1067.26 899.075 1065.38 898.322 L 1064.89 899.916 L 1064.03 899.681 C 1057.02 889.241 1054.97 855.364 1061.32 845.969 z"/>
<path transform="translate(0,0)" fill="rgb(0,38,132)" d="M 1068.38 900.159 C 1066.75 898.875 1067.26 899.075 1065.38 898.322 L 1064.89 899.916 L 1064.03 899.681 C 1057.02 889.241 1054.97 855.364 1061.32 845.969 C 1060.26 867.782 1060.18 879.502 1068.38 900.159 z"/>
<path transform="translate(0,0)" fill="rgb(64,226,253)" d="M 528.767 763.523 C 582.738 759.768 629.477 800.601 633.003 854.587 C 636.53 908.573 595.499 955.139 541.499 958.437 C 487.821 961.714 441.593 920.982 438.088 867.319 C 434.583 813.655 475.119 767.256 528.767 763.523 z"/>
<path transform="translate(0,0)" fill="rgb(0,58,184)" d="M 227.793 650.993 C 230.834 657.287 228.725 994.665 229.276 1036.33 C 221.703 1029.73 213.941 1023.34 206.001 1017.18 C 197.647 1011.45 191.364 1007.26 184.444 999.815 C 183.511 988.731 183.937 971.504 183.929 960.161 L 183.895 889.261 C 183.876 821.25 183.243 751.964 184.231 684.075 C 193.971 674.732 216.539 658.024 227.793 650.993 z"/>
<path transform="translate(0,0)" fill="rgb(20,157,241)" d="M 1464.63 651.428 C 1471.13 655.309 1501.29 681.412 1506.44 686.83 C 1507.73 697.956 1507.19 720.498 1507.21 732.136 L 1507.3 817.624 L 1507.6 933.132 C 1507.65 953.469 1508.37 978.372 1507.29 998.413 C 1501.12 1004.67 1496.63 1008.08 1489.6 1013.37 C 1481.32 1019.64 1473.01 1025.87 1464.67 1032.05 C 1464.05 905.557 1466.12 777.727 1464.63 651.428 z"/>
<path transform="translate(0,0)" fill="url(#Gradient4)" d="M 1816.5 1614.44 C 1817.49 1614.37 1818.48 1614.33 1819.47 1614.3 C 1836.88 1613.84 1856.48 1614.19 1874.15 1614.18 C 1894.28 1615.22 1918.23 1611.78 1937.68 1616.92 C 1974.74 1626.73 1977 1660.52 1975.61 1692.11 C 1976.15 1705.75 1975.08 1720.08 1975.64 1733.65 C 1976.94 1765.39 1960.71 1795.27 1924.84 1794.75 C 1892.44 1795.46 1859.85 1794.83 1827.44 1795.05 C 1819.46 1795.11 1811.13 1794.68 1803.29 1793.14 C 1796.62 1791.86 1790.31 1789.14 1784.79 1785.19 C 1757.52 1765.41 1765.65 1724.03 1764.4 1694.78 C 1762.53 1651.25 1767.07 1621.79 1816.5 1614.44 z M 1915.21 1754.97 C 1922.23 1753.29 1923.64 1752.57 1928.47 1747.19 C 1931.86 1731.6 1932.16 1673.85 1925.8 1660.44 C 1921.8 1652.01 1835.06 1654.46 1823.13 1655.53 C 1819.21 1656.08 1815.86 1656.68 1813.23 1659.98 C 1805.12 1670.13 1806.87 1724.86 1809.1 1738.61 C 1809.75 1742.61 1811.41 1750.55 1814.89 1753.2 C 1820.84 1757.72 1901.77 1755.41 1915.21 1754.97 z"/>
<path transform="translate(0,0)" fill="url(#Gradient3)" d="M 1126.03 1614.29 C 1142.68 1613.88 1160.31 1614.26 1176.98 1614.42 C 1199.65 1659.66 1228.37 1704.49 1252.26 1749.29 C 1259.75 1763.33 1269.31 1781.68 1278.12 1794.63 C 1260.37 1794.67 1242.63 1794.9 1224.89 1795.33 C 1222.93 1790.78 1210.81 1762.65 1205.83 1761.38 C 1186.04 1756.29 1125.75 1765.22 1110.26 1760.04 L 1109.96 1757.91 C 1111.15 1754.64 1127.65 1729.39 1129.63 1725.07 C 1133.25 1717.16 1173.63 1720.67 1183.77 1721.01 C 1184.55 1720.31 1184.03 1720.85 1184.91 1719.05 C 1174.47 1701.09 1160.81 1670.28 1149.86 1654.86 C 1147.04 1659.64 1143.85 1665.56 1141.36 1670.53 C 1120.41 1712.28 1095.16 1752.63 1075.04 1794.7 C 1057.35 1795.9 1040.2 1794.09 1021.81 1796.1 C 1047.77 1747.22 1077.31 1699.99 1103.93 1651.44 C 1110.76 1638.99 1118.29 1626.12 1126.03 1614.29 z"/>
<path transform="translate(0,0)" fill="url(#Gradient2)" d="M 1458.2 1614.36 C 1472.3 1614.42 1488.76 1614.85 1502.61 1613.87 C 1502.96 1640.2 1502.78 1666.89 1502.8 1693.25 C 1503.03 1736.74 1512.63 1792.48 1451.21 1794.86 C 1434.17 1795.52 1413 1794.33 1396.62 1795.09 C 1295.02 1799.82 1293.24 1782.36 1293.91 1691.07 C 1294.23 1665.64 1294.35 1640.2 1294.29 1614.76 L 1333.73 1614.63 L 1336.32 1614.61 C 1342.27 1622.18 1331 1740.45 1344.29 1752.11 C 1349.68 1756.84 1435.65 1755.66 1446.92 1754.04 C 1448.87 1752.64 1450.72 1751.11 1452.46 1749.46 C 1459.61 1742.57 1457.35 1703.98 1457.34 1692.45 C 1457.16 1666.41 1457.45 1640.38 1458.2 1614.36 z"/>
<path transform="translate(0,0)" fill="url(#Gradient1)" d="M 1733.16 1613.54 L 1734.86 1613.98 C 1736.4 1617.72 1735.85 1649.87 1735.84 1655.67 C 1720.45 1655.11 1667.07 1653.33 1654.55 1655.68 C 1651.34 1659.56 1653.7 1780.13 1653.69 1795.62 C 1638.79 1794.54 1623.84 1794.6 1608.95 1795.78 C 1610.08 1776.39 1609.22 1746.66 1609.22 1726.5 L 1609.29 1654.99 C 1584.64 1656.56 1556.5 1654.48 1530.62 1655.6 C 1531.09 1642.69 1530.69 1627.45 1530.67 1614.37 L 1648.32 1614.31 C 1676.33 1614.34 1705.26 1614.83 1733.16 1613.54 z"/>
</svg>